<svg width="340" height="350" viewBox="0 0 340 350" fill="none" xmlns="http://www.w3.org/2000/svg">
<path fill-rule="evenodd" clip-rule="evenodd" d="M66 0C29.5492 0 0 29.5492 0 66V284C0 320.451 29.5492 350 66 350H274C310.451 350 340 320.451 340 284V174C340 77.9025 262.098 0 166 0H66ZM201.8 173.4C201.8 202.6 195 234.2 157.4 234.2H122.2V115.8H153.4C191 115.8 201.8 141 201.8 173.4ZM43.8 83.8V266.2C43.8 289.4 60.6 307 83.4 307H149.4C240.2 307 281.8 244.6 281.8 173.4C281.8 99 236.2 43 145.4 43H83.4C60.6 43 43.8 60.6 43.8 83.8Z" fill="#1180AF"/>
</svg>
